<svg xmlns="http://www.w3.org/2000/svg" viewBox="0 0 512 512">
  <defs>
    <linearGradient id="g" x1="0" y1="1" x2="1" y2="0">
      <stop offset="0" stop-color="#f59e0b"/>
      <stop offset="1" stop-color="#fde047"/>
    </linearGradient>
  </defs>
  <rect width="512" height="512" rx="116" fill="url(#g)"/>
  <path fill="#020617" d="M236 92c8 0 14 6 16 14l14 58c8 32 33 57 65 65l58 14c8 2 14 8 14 16s-6 14-14 16l-58 14c-32 8-57 33-65 65l-14 58c-2 8-8 14-16 14s-14-6-16-14l-14-58c-8-32-33-57-65-65l-58-14c-8-2-14-8-14-16s6-14 14-16l58-14c32-8 57-33 65-65l14-58c2-8 8-14 16-14z"/>
  <path fill="#020617" d="M384 316c4 0 7 3 8 7l6 22c3 12 12 21 24 24l22 6c4 1 7 4 7 8s-3 7-7 8l-22 6c-12 3-21 12-24 24l-6 22c-1 4-4 7-8 7s-7-3-8-7l-6-22c-3-12-12-21-24-24l-22-6c-4-1-7-4-7-8s3-7 7-8l22-6c12-3 21-12 24-24l6-22c1-4 4-7 8-7z"/>
</svg>
